<svg xmlns="http://www.w3.org/2000/svg" xmlns:xlink="http://www.w3.org/1999/xlink" width="300" zoomAndPan="magnify" viewBox="0 0 224.87999 56.249996" height="75" preserveAspectRatio="xMidYMid meet" version="1.0"><defs><g/><clipPath id="76ec0dc710"><path d="M 2 9 L 223.339844 9 L 223.339844 45 L 2 45 Z M 2 9 " clip-rule="nonzero"/></clipPath><clipPath id="764ed910ae"><path d="M 2 3.207031 L 31 3.207031 L 31 22 L 2 22 Z M 2 3.207031 " clip-rule="nonzero"/></clipPath><clipPath id="877d48eccc"><path d="M 1 8 L 31.816406 8 L 31.816406 25 L 1 25 Z M 1 8 " clip-rule="nonzero"/></clipPath><clipPath id="a504cae75b"><path d="M 1 12 L 31.816406 12 L 31.816406 26 L 1 26 Z M 1 12 " clip-rule="nonzero"/></clipPath><clipPath id="3d1722c0b1"><path d="M 0.726562 24 L 30 24 L 30 28 L 0.726562 28 Z M 0.726562 24 " clip-rule="nonzero"/></clipPath><clipPath id="d2754b2ae7"><rect x="0" width="222" y="0" height="36"/></clipPath></defs><g clip-path="url(#76ec0dc710)"><g transform="matrix(1, 0, 0, 1, 2, 9)"><g clip-path="url(#d2754b2ae7)"><g fill="#008768" fill-opacity="1"><g transform="translate(29.120399, 26.52958)"><g><path d="M 6.484375 -23.65625 L 20.1875 -4.015625 L 20.25 -4.015625 L 20.25 -23.65625 L 23.0625 -23.65625 L 23.0625 0 L 19.515625 0 L 5.8125 -19.65625 L 5.75 -19.65625 L 5.75 0 L 2.9375 0 L 2.9375 -23.65625 Z M 6.484375 -23.65625 "/></g></g></g><g fill="#008768" fill-opacity="1"><g transform="translate(55.111261, 26.52958)"><g><path d="M 9.921875 -16.046875 C 12.347656 -16.046875 14.332031 -15.289062 15.875 -13.78125 C 17.414062 -12.28125 18.21875 -10.296875 18.28125 -7.828125 C 18.28125 -5.441406 17.5 -3.484375 15.9375 -1.953125 C 14.382812 -0.429688 12.378906 0.351562 9.921875 0.40625 C 7.472656 0.40625 5.476562 -0.367188 3.9375 -1.921875 C 2.40625 -3.472656 1.617188 -5.441406 1.578125 -7.828125 C 1.578125 -10.234375 2.351562 -12.195312 3.90625 -13.71875 C 5.46875 -15.25 7.472656 -16.023438 9.921875 -16.046875 Z M 4.375 -7.828125 C 4.375 -6.109375 4.890625 -4.71875 5.921875 -3.65625 C 6.960938 -2.601562 8.296875 -2.050781 9.921875 -2 C 11.546875 -2 12.867188 -2.539062 13.890625 -3.625 C 14.921875 -4.707031 15.445312 -6.109375 15.46875 -7.828125 C 15.46875 -9.515625 14.945312 -10.90625 13.90625 -12 C 12.875 -13.09375 11.535156 -13.640625 9.890625 -13.640625 C 8.285156 -13.640625 6.96875 -13.097656 5.9375 -12.015625 C 4.914062 -10.929688 4.394531 -9.535156 4.375 -7.828125 Z M 4.375 -7.828125 "/></g></g></g><g fill="#008768" fill-opacity="1"><g transform="translate(74.955192, 26.52958)"><g><path d="M 10.15625 -16.046875 C 10.5625 -16.046875 10.921875 -15.988281 11.234375 -15.875 L 11.0625 -13.234375 C 10.570312 -13.367188 10.101562 -13.4375 9.65625 -13.4375 C 8.144531 -13.4375 7.003906 -12.941406 6.234375 -11.953125 C 5.460938 -10.960938 5.078125 -9.5625 5.078125 -7.75 L 5.078125 0 L 2.46875 0 L 2.46875 -12.171875 C 2.46875 -12.484375 2.425781 -13.640625 2.34375 -15.640625 L 4.8125 -15.640625 C 4.851562 -14.078125 4.875 -13.21875 4.875 -13.0625 L 4.953125 -13.0625 C 5.367188 -13.957031 6.050781 -14.675781 7 -15.21875 C 7.945312 -15.769531 9 -16.046875 10.15625 -16.046875 Z M 10.15625 -16.046875 "/></g></g></g><g fill="#008768" fill-opacity="1"><g transform="translate(86.113041, 26.52958)"><g><path d="M 18.078125 -25.265625 L 18.078125 0 L 15.46875 0 L 15.46875 -2.78125 L 15.40625 -2.78125 C 14.875 -1.769531 14.0625 -0.984375 12.96875 -0.421875 C 11.875 0.128906 10.679688 0.40625 9.390625 0.40625 C 7.179688 0.40625 5.335938 -0.378906 3.859375 -1.953125 C 2.378906 -3.523438 1.617188 -5.484375 1.578125 -7.828125 C 1.578125 -10.203125 2.335938 -12.160156 3.859375 -13.703125 C 5.390625 -15.242188 7.367188 -16.023438 9.796875 -16.046875 C 12.046875 -16.046875 13.914062 -15.15625 15.40625 -13.375 L 15.46875 -13.375 L 15.46875 -25.265625 Z M 4.375 -7.828125 C 4.375 -6.109375 4.890625 -4.710938 5.921875 -3.640625 C 6.960938 -2.566406 8.296875 -2.019531 9.921875 -2 C 11.546875 -2 12.863281 -2.535156 13.875 -3.609375 C 14.894531 -4.679688 15.425781 -6.085938 15.46875 -7.828125 C 15.46875 -9.515625 14.945312 -10.90625 13.90625 -12 C 12.875 -13.09375 11.535156 -13.640625 9.890625 -13.640625 C 8.285156 -13.640625 6.972656 -13.097656 5.953125 -12.015625 C 4.941406 -10.929688 4.414062 -9.535156 4.375 -7.828125 Z M 4.375 -7.828125 "/></g></g></g><g fill="#008768" fill-opacity="1"><g transform="translate(106.524893, 26.52958)"><g><path d="M 17.8125 -23.65625 L 17.8125 -21.0625 L 5.75 -21.0625 L 5.75 -13.640625 L 17.015625 -13.640625 L 17.015625 -11.03125 L 5.75 -11.03125 L 5.75 -2.609375 L 18.421875 -2.609375 L 18.421875 0 L 2.9375 0 L 2.9375 -23.65625 Z M 17.8125 -23.65625 "/></g></g></g><g fill="#008768" fill-opacity="1"><g transform="translate(126.335409, 26.52958)"><g><path d="M 4.3125 -15.640625 L 8.453125 -10.03125 L 12.359375 -15.640625 L 15.546875 -15.640625 L 10.15625 -8.421875 L 16.609375 0 L 13.171875 0 L 8.21875 -6.75 L 3.34375 0 L 0.09375 0 L 6.515625 -8.421875 L 0.90625 -15.640625 Z M 4.3125 -15.640625 "/></g></g></g><g fill="#008768" fill-opacity="1"><g transform="translate(143.039051, 26.52958)"><g><path d="M 10.625 -16.046875 C 13.101562 -16.046875 15.085938 -15.265625 16.578125 -13.703125 C 18.066406 -12.140625 18.820312 -10.179688 18.84375 -7.828125 C 18.84375 -5.484375 18.082031 -3.535156 16.5625 -1.984375 C 15.050781 -0.441406 13.207031 0.351562 11.03125 0.40625 C 9.695312 0.40625 8.488281 0.113281 7.40625 -0.46875 C 6.320312 -1.050781 5.523438 -1.820312 5.015625 -2.78125 L 4.953125 -2.78125 L 4.953125 7.625 L 2.34375 7.625 L 2.34375 -15.640625 L 4.953125 -15.640625 L 4.953125 -13.375 L 5.015625 -13.375 C 6.546875 -15.15625 8.414062 -16.046875 10.625 -16.046875 Z M 4.953125 -7.828125 C 4.953125 -6.109375 5.46875 -4.71875 6.5 -3.65625 C 7.539062 -2.601562 8.875 -2.050781 10.5 -2 C 12.125 -2 13.445312 -2.539062 14.46875 -3.625 C 15.5 -4.707031 16.023438 -6.109375 16.046875 -7.828125 C 16.046875 -9.515625 15.523438 -10.90625 14.484375 -12 C 13.453125 -13.09375 12.113281 -13.640625 10.46875 -13.640625 C 8.863281 -13.640625 7.546875 -13.097656 6.515625 -12.015625 C 5.492188 -10.929688 4.972656 -9.535156 4.953125 -7.828125 Z M 4.953125 -7.828125 "/></g></g></g><g fill="#008768" fill-opacity="1"><g transform="translate(163.450903, 26.52958)"><g><path d="M 5.3125 -25.265625 L 5.3125 0 L 2.703125 0 L 2.703125 -25.265625 Z M 5.3125 -25.265625 "/></g></g></g><g fill="#008768" fill-opacity="1"><g transform="translate(171.468647, 26.52958)"><g><path d="M 9.921875 -16.046875 C 12.347656 -16.046875 14.332031 -15.289062 15.875 -13.78125 C 17.414062 -12.28125 18.21875 -10.296875 18.28125 -7.828125 C 18.28125 -5.441406 17.5 -3.484375 15.9375 -1.953125 C 14.382812 -0.429688 12.378906 0.351562 9.921875 0.40625 C 7.472656 0.40625 5.476562 -0.367188 3.9375 -1.921875 C 2.40625 -3.472656 1.617188 -5.441406 1.578125 -7.828125 C 1.578125 -10.234375 2.351562 -12.195312 3.90625 -13.71875 C 5.46875 -15.25 7.472656 -16.023438 9.921875 -16.046875 Z M 4.375 -7.828125 C 4.375 -6.109375 4.890625 -4.71875 5.921875 -3.65625 C 6.960938 -2.601562 8.296875 -2.050781 9.921875 -2 C 11.546875 -2 12.867188 -2.539062 13.890625 -3.625 C 14.921875 -4.707031 15.445312 -6.109375 15.46875 -7.828125 C 15.46875 -9.515625 14.945312 -10.90625 13.90625 -12 C 12.875 -13.09375 11.535156 -13.640625 9.890625 -13.640625 C 8.285156 -13.640625 6.96875 -13.097656 5.9375 -12.015625 C 4.914062 -10.929688 4.394531 -9.535156 4.375 -7.828125 Z M 4.375 -7.828125 "/></g></g></g><g fill="#008768" fill-opacity="1"><g transform="translate(191.312578, 26.52958)"><g><path d="M 10.15625 -16.046875 C 10.5625 -16.046875 10.921875 -15.988281 11.234375 -15.875 L 11.0625 -13.234375 C 10.570312 -13.367188 10.101562 -13.4375 9.65625 -13.4375 C 8.144531 -13.4375 7.003906 -12.941406 6.234375 -11.953125 C 5.460938 -10.960938 5.078125 -9.5625 5.078125 -7.75 L 5.078125 0 L 2.46875 0 L 2.46875 -12.171875 C 2.46875 -12.484375 2.425781 -13.640625 2.34375 -15.640625 L 4.8125 -15.640625 C 4.851562 -14.078125 4.875 -13.21875 4.875 -13.0625 L 4.953125 -13.0625 C 5.367188 -13.957031 6.050781 -14.675781 7 -15.21875 C 7.945312 -15.769531 9 -16.046875 10.15625 -16.046875 Z M 10.15625 -16.046875 "/></g></g></g><g fill="#008768" fill-opacity="1"><g transform="translate(202.470427, 26.52958)"><g><path d="M 9.59375 -16.046875 C 11.90625 -16.046875 13.710938 -15.316406 15.015625 -13.859375 C 16.328125 -12.398438 16.992188 -10.332031 17.015625 -7.65625 L 17.015625 -7.015625 L 4.375 -7.015625 C 4.507812 -5.566406 5.054688 -4.375 6.015625 -3.4375 C 6.972656 -2.5 8.144531 -2.019531 9.53125 -2 C 11.644531 -2 13.289062 -2.789062 14.46875 -4.375 L 16.4375 -2.84375 C 15.613281 -1.769531 14.644531 -0.957031 13.53125 -0.40625 C 12.414062 0.132812 11.082031 0.40625 9.53125 0.40625 C 7.144531 0.40625 5.226562 -0.367188 3.78125 -1.921875 C 2.332031 -3.472656 1.597656 -5.441406 1.578125 -7.828125 C 1.578125 -10.179688 2.316406 -12.125 3.796875 -13.65625 C 5.273438 -15.195312 7.207031 -15.992188 9.59375 -16.046875 Z M 14.203125 -9.21875 C 14.140625 -10.582031 13.703125 -11.660156 12.890625 -12.453125 C 12.078125 -13.242188 10.929688 -13.640625 9.453125 -13.640625 C 8.117188 -13.640625 6.992188 -13.257812 6.078125 -12.5 C 5.171875 -11.738281 4.601562 -10.644531 4.375 -9.21875 Z M 14.203125 -9.21875 "/></g></g></g><g clip-path="url(#764ed910ae)"><path fill="#008768" d="M 3.734375 21.191406 C 3.503906 20.214844 3.382812 19.199219 3.382812 18.15625 C 3.382812 10.84375 9.308594 4.917969 16.621094 4.917969 C 23.929688 4.917969 29.855469 10.84375 29.855469 18.15625 C 29.855469 19.253906 29.722656 20.320312 29.472656 21.339844 L 29.628906 21.53125 C 30.125 20.109375 30.398438 18.578125 30.398438 16.984375 C 30.398438 9.375 24.230469 3.207031 16.621094 3.207031 C 9.011719 3.207031 2.84375 9.375 2.84375 16.984375 C 2.84375 18.53125 3.097656 20.019531 3.566406 21.40625 L 3.734375 21.191406 " fill-opacity="1" fill-rule="nonzero"/></g><g clip-path="url(#877d48eccc)"><path fill="#008768" d="M 9.171875 19.207031 L 11.472656 14.925781 L 14.027344 14.414062 L 17.285156 10.644531 L 23.164062 17.992188 L 25.144531 17.226562 L 31.417969 24.246094 L 24.246094 15.519531 L 23.292969 16.773438 L 17.214844 8.894531 L 13.507812 13.710938 L 11.46875 14.148438 L 8.996094 17.421875 L 7.890625 16.320312 L 1.820312 24.246094 L 7.894531 17.445312 L 9.171875 19.207031 " fill-opacity="1" fill-rule="nonzero"/></g><g clip-path="url(#a504cae75b)"><path fill="#008768" d="M 24.355469 18.085938 L 20.011719 20.722656 L 22.300781 17.695312 L 19.316406 14.242188 L 19.625 16.339844 L 17.300781 14.242188 L 16.621094 15.71875 L 16.445312 12.96875 L 12.492188 19.054688 L 13.578125 15.332031 L 12.296875 15.527344 L 8.074219 22.117188 L 7.570312 18.78125 L 1.820312 24.246094 C 14.070312 28.15625 23.503906 21.191406 31.417969 24.246094 L 24.355469 18.085938 " fill-opacity="1" fill-rule="nonzero"/></g><g clip-path="url(#3d1722c0b1)"><path fill="#008768" d="M 0.746094 25.300781 C 10.664062 30.488281 21.503906 23.125 29.417969 26.183594 C 19.578125 20.953125 11.5625 28.3125 0.746094 25.300781 " fill-opacity="1" fill-rule="nonzero"/></g></g></g></g></svg>